<svg width="209" height="38" viewBox="0 0 209 38" fill="none" xmlns="http://www.w3.org/2000/svg">
<path d="M208.72 0.225098H0.819946V37.4351H208.72V0.225098Z" fill="white"/>
<path d="M207.19 1.76514H2.35999V35.9051H207.19V1.76514Z" fill="#004A8E"/>
<path d="M207.19 1.76514H36.5V35.9051H207.19V1.76514Z" fill="#004A8E"/>
<path d="M47.35 26.9053V10.7551H52.66V16.2053H57.64V10.7551H62.96V26.9053H57.64V20.6453H52.66V26.9053H47.35Z" fill="white"/>
<path d="M71.38 14.7651H72.7599C73.4999 14.7244 74.2407 14.8298 74.94 15.0751C75.2879 15.226 75.586 15.4721 75.8 15.7851C76.0554 16.1722 76.2384 16.6026 76.34 17.0551C76.4657 17.5961 76.5295 18.1498 76.53 18.7053C76.5577 19.5151 76.4182 20.3217 76.12 21.0751C75.8983 21.6544 75.4902 22.1433 74.96 22.465C74.2589 22.7862 73.4898 22.9306 72.72 22.8852L71.38 22.8952V14.7651ZM73.43 26.9052C74.4865 26.9313 75.5419 26.8203 76.5699 26.5751C77.3039 26.3988 78.0057 26.1085 78.65 25.715C79.2237 25.3293 79.7248 24.8453 80.13 24.2851C80.6336 23.568 81.0185 22.7747 81.27 21.9352C81.5928 20.8896 81.7481 19.7995 81.73 18.7053C81.7771 17.1334 81.4262 15.5752 80.71 14.1752C80.0786 13.0039 79.0762 12.0751 77.86 11.5351C76.4962 10.9798 75.0319 10.7142 73.56 10.7551H66.18V26.9052H73.43Z" fill="white"/>
<path d="M84.17 26.9053V10.7551H96.77V14.7351H89.41V17.3252H95.29V21.2053H89.41V26.9053H84.17Z" fill="white"/>
<path d="M114.57 16.9253H109.55C109.498 16.2109 109.189 15.5395 108.68 15.0351C108.171 14.5779 107.504 14.3375 106.82 14.3652C106.38 14.3551 105.943 14.4484 105.545 14.6377C105.148 14.827 104.8 15.1071 104.53 15.4553C103.85 16.5008 103.537 17.7423 103.64 18.9851C103.6 19.855 103.729 20.7245 104.02 21.5451C104.228 22.0789 104.594 22.5362 105.07 22.8552C105.582 23.1519 106.168 23.2974 106.76 23.2751C107.112 23.2995 107.465 23.2528 107.798 23.1377C108.132 23.0226 108.438 22.8415 108.7 22.6052C109.226 22.0723 109.536 21.3633 109.57 20.6152H114.68C114.599 21.4834 114.393 22.3354 114.07 23.1452C113.722 23.9147 113.229 24.6105 112.62 25.1953C111.929 25.8933 111.097 26.4352 110.18 26.7851C109.134 27.1728 108.025 27.3594 106.91 27.3352C105.751 27.3469 104.599 27.1644 103.5 26.7951C102.524 26.4686 101.628 25.9405 100.87 25.2451C100.168 24.5895 99.5974 23.8055 99.19 22.9353C98.6089 21.6689 98.3184 20.2885 98.34 18.8952C98.3282 17.6979 98.5349 16.5084 98.95 15.3852C99.3189 14.3684 99.8943 13.4389 100.64 12.6553C101.315 11.9516 102.124 11.3904 103.02 11.0051C104.187 10.5252 105.439 10.2871 106.7 10.3052C107.821 10.2949 108.936 10.4706 110 10.8252C110.954 11.1248 111.822 11.6496 112.53 12.3552C113.191 13.0212 113.712 13.8137 114.06 14.6853C114.338 15.4033 114.509 16.1578 114.57 16.9253Z" fill="white"/>
<path d="M131.59 14.3853C132.085 14.3629 132.582 14.3963 133.07 14.4851C133.365 14.5656 133.628 14.737 133.82 14.9751C134.011 15.2131 134.113 15.5101 134.11 15.8152C134.114 16.0093 134.073 16.2019 133.99 16.3772C133.906 16.5526 133.783 16.7059 133.63 16.8252C133.114 17.1388 132.51 17.2756 131.91 17.2151H129.91V14.3753H131.59V14.3853ZM132.92 26.9053C133.81 26.9305 134.7 26.8734 135.58 26.7351C136.121 26.6071 136.647 26.4229 137.15 26.1853C137.588 25.9818 137.99 25.7081 138.34 25.3753C138.757 24.983 139.078 24.5006 139.28 23.9651C139.506 23.3645 139.618 22.727 139.61 22.0852C139.643 21.2167 139.386 20.362 138.88 19.6553C138.389 19.0013 137.691 18.5325 136.9 18.3252C137.527 17.9976 138.054 17.507 138.425 16.9051C138.796 16.3032 138.998 15.6124 139.01 14.9053C139.032 14.2426 138.873 13.5864 138.548 13.0081C138.224 12.4298 137.747 11.9516 137.17 11.6253C135.8 10.9573 134.281 10.6573 132.76 10.7552H124.75V26.9053H132.92ZM132.07 20.1453C132.783 20.0669 133.504 20.2025 134.14 20.5352C134.297 20.6786 134.422 20.8536 134.506 21.0486C134.59 21.2437 134.633 21.4545 134.63 21.667C134.627 21.8796 134.579 22.089 134.49 22.2818C134.4 22.4745 134.271 22.646 134.11 22.7852C133.487 23.136 132.77 23.2797 132.06 23.1954H129.89V20.1353H132.07V20.1453Z" fill="white"/>
<path d="M151.3 21.4751H147.92L149.59 15.6052L151.3 21.4751ZM146.33 26.9053L146.94 24.7852H152.23L152.85 26.9053H158.13L152.34 10.7551H146.94L141.14 26.9053H146.33Z" fill="white"/>
<path d="M160.36 26.9053V10.7551H165.31L170.9 19.4053V10.7551H175.99V26.9053H170.94L165.47 18.4751V26.9053H160.36Z" fill="white"/>
<path d="M179.53 26.9053V10.7551H184.68V16.0852L189.48 10.7551H195.72L189.8 16.8352L196.33 26.9053H189.97L186.08 20.4751L184.67 21.8652V26.9053H179.53Z" fill="white"/>
<path d="M36.5 1.76514H2.35999V35.9051H36.5V1.76514Z" fill="#EC1C24"/>
<path d="M30.52 7.73511H8.32996V29.9251H30.52V7.73511Z" fill="white"/>
<path d="M21.13 1.76514H17.72V35.9051H21.13V1.76514Z" fill="white"/>
<path d="M36.5 17.1252H2.35999V20.5352H36.5V17.1252Z" fill="white"/>
<path d="M24.55 13.7053H14.31V23.9453H24.55V13.7053Z" fill="#004A8E"/>
</svg>
